<mxfile host="app.diagrams.net" modified="2024-03-11T08:27:56.978Z" agent="Mozilla/5.0 (Macintosh; Intel Mac OS X 10_15_7) AppleWebKit/537.36 (KHTML, like Gecko) Chrome/121.0.0.0 Safari/537.36" version="24.0.4" etag="Cvm4P71DnyVMyJK3V_SD" type="github">
  <diagram name="Page-1" id="-3_OOTo7Ng89aUFDgDXZ">
    <mxGraphModel>
      <root>
        <mxCell id="0" />
        <mxCell id="1" parent="0" />
      </root>
    </mxGraphModel>
  </diagram>
</mxfile>
